<?xml version="1.0" encoding="UTF-8"?>
<svg id="Layer_1" data-name="Layer 1" xmlns="http://www.w3.org/2000/svg" viewBox="0 0 1244.44 206.89">
  <defs>
    <style>
      .cls-1 {
        fill: #010202;
        stroke-width: 0px;
      }
    </style>
  </defs>
  <path class="cls-1" d="m46.31,10.79c31.41-16.3,71.97-14.19,100.79,6.67,9.92,7.36,18.24,16.86,24.45,27.52,10.04,19,13.79,41.34,10.12,62.55-2.9,19.81-12.99,38.27-27.61,51.88,11.24,15.62,21.96,31.6,33.04,47.34-13.95.2-27.9-.05-41.84.14-7.23-9.6-13.41-19.94-20.36-29.73-10.93,3.35-22.37,5.71-33.9,5.73-20.15-.16-40.72-5.92-56.59-18.66-16.56-12.55-28.45-31.27-32.43-51.7-3.6-19.82-2.54-40.91,5.3-59.63C15.19,35.1,28.89,19.69,46.31,10.79Zm.22,16.21c-16.27,11.39-27.17,29.87-30.3,49.4-2.84,17.85-.86,36.9,7.68,53.01,8.29,15.93,22.47,28.87,39.38,35.05,16.98,6.7,36.38,6.95,53.54.75-12.15-19.21-25.25-37.8-37.66-56.84,13.31.63,26.67.27,39.99.12,1.31,1.07,2.02,2.68,2.99,4.04,7.76,11.75,15.96,23.19,23.83,34.86,5.86-6.34,10.63-13.65,14.51-21.35,13.35-29.63,8.38-67.68-14.91-91.03C120.03,9.41,75.94,6.26,46.53,27Zm50.99,91.08c16.15,24.16,32.52,48.17,48.51,72.45,1.45,2.13,2.5,4.73,4.7,6.21,5.74.32,11.5.23,17.25.12-18.25-26.1-36.13-52.46-54.2-78.68-5.42.05-10.84.04-16.26-.1Z"/>
  <path class="cls-1" d="m212.42,101.5c.04-33.06.01-66.13-.02-99.2,5.01.04,10.02.06,15.02.04-.1,35.76.04,71.52-.05,107.28.26,14.85,4.05,30.26,13.58,41.97,9.54,11.45,24.45,17.2,39.08,17.93,15.83,1.06,32.73-3.33,44.36-14.53,6.88-7.41,11.94-16.66,13.89-26.63,3.05-12.7,2.01-25.84,2.26-38.78-.1-29.08.11-58.17-.16-87.25,5,.02,10.01.01,15.02-.01-.2,28.76.04,57.52-.05,86.28-.04,16.42.89,33.29-4.35,49.12-3.74,13.6-12.32,25.96-24.26,33.58-12.28,8.19-27.27,10.99-41.78,11.6-17.74-.11-36.38-4.35-49.99-16.37-11.88-10.6-18.9-25.88-21.26-41.47-1.25-7.79-1.26-15.69-1.29-23.56Z"/>
  <path class="cls-1" d="m394.39,121.98c18.17-39.9,36.23-79.85,54.51-119.71,5.44-.03,10.89.04,16.34-.08,8.93,18.3,17.08,36.97,25.73,55.41,17.17,37.2,33.93,74.58,51.06,111.79,1.81,3.82,3.51,7.69,5.48,11.43-5.52-.05-11.04.03-16.56-.1-17.29-37.28-33.86-74.88-50.78-112.33-7.78-16.43-14.85-33.18-22.29-49.76-.37.03-1.12.07-1.49.09-7.69,17.9-15.91,35.56-23.74,53.4-9.07,20.07-17.8,40.28-26.95,60.31-7.07,16.15-14.69,32.07-21.4,48.37-5.61-.03-11.22-.06-16.83-.02,8.82-19.67,18.26-39.06,26.92-58.8Z"/>
  <path class="cls-1" d="m570.07,2.26c23.97.05,47.95-.08,71.92,0,17.1.46,35.48,3.95,48.24,16.25,10.67,9.52,16.05,23.94,16.06,38.06.18,10.05-1.79,20.38-7.18,28.99-7.44,13.16-21.36,21.53-35.72,25.18,16.03,23.54,32.62,46.69,48.69,70.21-5.81-.26-11.62-.05-17.42-.21-15.66-22.34-31.3-44.84-46.59-67.48-21.06.04-42.12,0-63.19.04-.05,22.51-.01,45.02.02,67.53-4.91-.11-9.83-.05-14.74-.08-.04-59.5.06-118.99-.09-178.49Zm14.77,13.19c-.02,28.33.02,56.66.02,85,18.04,0,36.09.04,54.13.02,12.81.23,26.15-2.39,36.73-9.94,8.13-6.2,14.06-15.55,15-25.85,1.95-13.68-1.55-29.05-12.71-38.02-9.23-8.29-21.98-10.58-33.95-11.27-19.74.02-39.48.02-59.22.06Z"/>
  <path class="cls-1" d="m719.82,2.33c46.08-.1,92.17-.1,138.25-.02-.13,4.37-.05,8.74-.01,13.11-20.61.29-41.22-.07-61.84.07-.16,55.1-.08,110.2-.05,165.3-4.89-.01-9.78-.05-14.67,0-.21-55.1-.02-110.2-.1-165.3-20.55-.09-41.11.03-61.66-.07.14-4.36.08-8.73.08-13.09Z"/>
  <path class="cls-1" d="m873.67,2.36c44.3-.14,88.6-.13,132.9.02-.1,3.89-.06,7.79-.1,11.69-13.77,17.27-26.75,35.16-40.34,52.56-25.65,33.75-51.38,67.44-76.98,101.22,40.32-.02,80.64.1,120.96-.07-.03,4.34-.02,8.69.01,13.03-46.76.05-93.51.05-140.27-.03.13-3.71-.26-7.45.16-11.14,2.98-4.9,6.98-9.11,10.29-13.79,17.94-23.36,35.78-46.79,53.55-70.27,18.13-23.14,35.88-46.57,53.52-70.09-37.91-.11-75.82.08-113.73-.07.23-4.35.19-8.71.03-13.06Z"/>
  <path class="cls-1" d="m1074.43,2.32c15.06-.08,30.11.05,45.17-.06,13.13,20.42,26.72,40.55,39.32,61.3,2.72-2.69,4.22-6.49,6.58-9.54,11.25-17.32,22.35-34.74,34.05-51.76,14.64.07,29.29-.06,43.94.05-19.7,29.5-39.75,58.77-59.47,88.26,19.9,30.23,40.31,60.15,60.42,90.25-14.87-.01-29.73-.03-44.6-.02-6.22-8.3-11.51-17.25-17.17-25.92-8.11-12.38-15.82-24.99-23.94-37.36-11.84,18.12-23.25,36.54-35.34,54.5-2.18,2.77-3.4,6.4-6.11,8.66-14.7.21-29.4.02-44.1.18,16.24-24.41,32.78-48.61,49.26-72.85,3.72-5.46,7.12-11.15,11.24-16.33-4.17-7.82-9.82-14.74-14.41-22.31-15.13-22.23-29.55-44.93-44.84-67.05Z"/>
</svg>