<svg xmlns="http://www.w3.org/2000/svg" viewBox="0 0 24 24">
  <path
    fill="#ffffff"
    d="M20.52 3.48A11.85 11.85 0 0 0 12.07 0C5.5 0 .16 5.34.16 11.91c0 2.1.55 4.16 1.59 5.97L0 24l6.31-1.66a11.9 11.9 0 0 0 5.69 1.45h.01c6.57 0 11.91-5.34 11.91-11.91 0-3.18-1.24-6.16-3.4-8.4Zm-8.51 18.3h-.01a9.9 9.9 0 0 1-5.05-1.39l-.36-.21-3.74.98 1-3.64-.24-.38a9.85 9.85 0 0 1-1.51-5.22C2.1 6.44 6.52 2.02 12 2.02c2.64 0 5.12 1.03 6.99 2.9a9.82 9.82 0 0 1 2.9 6.99c0 5.48-4.42 9.9-9.88 9.9Zm5.43-7.43c-.3-.15-1.77-.87-2.05-.97-.27-.1-.47-.15-.67.15-.2.3-.76.97-.93 1.17-.17.2-.35.22-.65.08-.3-.15-1.25-.46-2.38-1.47-.88-.78-1.47-1.75-1.64-2.05-.17-.3-.02-.46.13-.6.13-.13.3-.35.45-.53.15-.17.2-.3.3-.5.1-.2.05-.37-.03-.52-.08-.15-.67-1.62-.92-2.22-.24-.58-.48-.5-.67-.51l-.57-.01c-.2 0-.52.07-.8.37-.27.3-1.04 1.02-1.04 2.48 0 1.45 1.06 2.86 1.2 3.06.15.2 2.08 3.17 5.03 4.45.7.3 1.25.48 1.68.62.71.23 1.36.2 1.87.12.57-.08 1.77-.72 2.02-1.42.25-.7.25-1.3.17-1.42-.08-.12-.27-.2-.57-.35Z"
  />
</svg>
